<svg id="visual" viewBox="0 0 900 300" width="900" height="300" xmlns="http://www.w3.org/2000/svg" xmlns:xlink="http://www.w3.org/1999/xlink" version="1.1"><path d="M0 184L21.5 184.7C43 185.3 86 186.7 128.8 190.8C171.7 195 214.3 202 257.2 203.2C300 204.3 343 199.7 385.8 200.5C428.7 201.3 471.3 207.7 514.2 205.7C557 203.7 600 193.3 642.8 192.8C685.7 192.3 728.3 201.7 771.2 202.8C814 204 857 197 878.5 193.5L900 190L900 301L878.5 301C857 301 814 301 771.2 301C728.3 301 685.7 301 642.8 301C600 301 557 301 514.2 301C471.3 301 428.7 301 385.8 301C343 301 300 301 257.2 301C214.3 301 171.7 301 128.8 301C86 301 43 301 21.5 301L0 301Z" fill="#092d8e"></path><path d="M0 201L21.5 206.2C43 211.3 86 221.7 128.8 225.2C171.7 228.7 214.3 225.3 257.2 226.3C300 227.3 343 232.7 385.8 232.8C428.7 233 471.3 228 514.2 221.3C557 214.7 600 206.3 642.8 205.7C685.7 205 728.3 212 771.2 217C814 222 857 225 878.5 226.5L900 228L900 301L878.5 301C857 301 814 301 771.2 301C728.3 301 685.7 301 642.8 301C600 301 557 301 514.2 301C471.3 301 428.7 301 385.8 301C343 301 300 301 257.2 301C214.3 301 171.7 301 128.8 301C86 301 43 301 21.5 301L0 301Z" fill="#3f5cae"></path><path d="M0 235L21.5 234.3C43 233.7 86 232.3 128.8 234.2C171.7 236 214.3 241 257.2 242.2C300 243.3 343 240.7 385.8 239.8C428.7 239 471.3 240 514.2 241.3C557 242.7 600 244.3 642.8 246.5C685.7 248.7 728.3 251.3 771.2 249.2C814 247 857 240 878.5 236.5L900 233L900 301L878.5 301C857 301 814 301 771.2 301C728.3 301 685.7 301 642.8 301C600 301 557 301 514.2 301C471.3 301 428.7 301 385.8 301C343 301 300 301 257.2 301C214.3 301 171.7 301 128.8 301C86 301 43 301 21.5 301L0 301Z" fill="#6e8bcb"></path><path d="M0 250L21.5 249.5C43 249 86 248 128.8 249.3C171.7 250.7 214.3 254.3 257.2 255.3C300 256.3 343 254.7 385.8 256.5C428.7 258.3 471.3 263.7 514.2 265.2C557 266.7 600 264.3 642.8 263.2C685.7 262 728.3 262 771.2 262.3C814 262.7 857 263.3 878.5 263.7L900 264L900 301L878.5 301C857 301 814 301 771.2 301C728.3 301 685.7 301 642.8 301C600 301 557 301 514.2 301C471.3 301 428.7 301 385.8 301C343 301 300 301 257.2 301C214.3 301 171.7 301 128.8 301C86 301 43 301 21.5 301L0 301Z" fill="#a3bbe6"></path><path d="M0 272L21.5 273C43 274 86 276 128.8 278C171.7 280 214.3 282 257.2 281.8C300 281.7 343 279.3 385.8 279.5C428.7 279.7 471.3 282.3 514.2 280.2C557 278 600 271 642.8 271C685.7 271 728.3 278 771.2 281.5C814 285 857 285 878.5 285L900 285L900 301L878.5 301C857 301 814 301 771.2 301C728.3 301 685.7 301 642.8 301C600 301 557 301 514.2 301C471.3 301 428.7 301 385.8 301C343 301 300 301 257.2 301C214.3 301 171.7 301 128.8 301C86 301 43 301 21.5 301L0 301Z" fill="#deecff"></path></svg>